<svg width="29" height="48" fill="none" xmlns="http://www.w3.org/2000/svg"><path fill-rule="evenodd" clip-rule="evenodd" d="M9 18H2v12h7V18zm-7-2a2 2 0 00-2 2v12a2 2 0 002 2h7a2 2 0 002-2V18a2 2 0 00-2-2H2zM14 18h12v8H14v-8zm-2 8v-8a2 2 0 012-2h12a2 2 0 012 2v8h1v2a1 1 0 01-1 1H12a1 1 0 01-1-1v-2h1z" fill="#fff"/><path fill-rule="evenodd" clip-rule="evenodd" d="M14 2h12v8H14V2zm-2 8V2a2 2 0 012-2h12a2 2 0 012 2v8h1v2a1 1 0 01-1 1H12a1 1 0 01-1-1v-2h1zM9 2H2v12h7V2zM2 0a2 2 0 00-2 2v12a2 2 0 002 2h7a2 2 0 002-2V2a2 2 0 00-2-2H2z" fill="#8E91A6"/><path fill="#8E91A6" fill-opacity=".3" d="M2 2h7v12H2zM14 2h12v8H14z"/><path fill="#fff" fill-opacity=".3" d="M14 18h12v8H14z"/><path fill="#FF7C83" fill-opacity=".3" d="M14 34h12v8H14z"/><path fill="#fff" fill-opacity=".3" d="M2 18h7v12H2z"/><path fill="#FF7C83" fill-opacity=".3" d="M2 34h7v12H2z"/><path fill-rule="evenodd" clip-rule="evenodd" d="M9 34H2v12h7V34zm-7-2a2 2 0 00-2 2v12a2 2 0 002 2h7a2 2 0 002-2V34a2 2 0 00-2-2H2zM14 34h12v8H14v-8zm-2 8v-8a2 2 0 012-2h12a2 2 0 012 2v8h1v2a1 1 0 01-1 1H12a1 1 0 01-1-1v-2h1z" fill="#FF7C83"/></svg>