<svg width="29" height="48" fill="none" xmlns="http://www.w3.org/2000/svg"><path fill-rule="evenodd" clip-rule="evenodd" d="M2 18h7v12H2V18zm-2 0a2 2 0 012-2h7a2 2 0 012 2v12a2 2 0 01-2 2H2a2 2 0 01-2-2V18zm7 2H4v8h3v-8zM26 18H14v8h12v-8zm2 8v-8a2 2 0 00-2-2H14a2 2 0 00-2 2v8h-1v2a1 1 0 001 1h16a1 1 0 001-1v-2h-1zm-12-6h8v4h-8v-4z" fill="#fff"/><path fill-rule="evenodd" clip-rule="evenodd" d="M26 2H14v8h12V2zm2 8V2a2 2 0 00-2-2H14a2 2 0 00-2 2v8h-1v2a1 1 0 001 1h16a1 1 0 001-1v-2h-1zM16 4h8v4h-8V4zM2 2h7v12H2V2zM0 2a2 2 0 012-2h7a2 2 0 012 2v12a2 2 0 01-2 2H2a2 2 0 01-2-2V2zm7 2H4v8h3V4z" fill="#8E91A6"/><path fill-rule="evenodd" clip-rule="evenodd" d="M2 34h7v12H2V34zm-2 0a2 2 0 012-2h7a2 2 0 012 2v12a2 2 0 01-2 2H2a2 2 0 01-2-2V34zm7 2H4v8h3v-8zM26 34H14v8h12v-8zm2 8v-8a2 2 0 00-2-2H14a2 2 0 00-2 2v8h-1v2a1 1 0 001 1h16a1 1 0 001-1v-2h-1zm-12-6h8v4h-8v-4z" fill="#FF7C83"/></svg>