<svg width="123" height="76" fill="none" xmlns="http://www.w3.org/2000/svg"><path d="M79 8h42.11v60H79V8zM1 8h42.11v60H1V8z" fill="#fff" stroke="#333" stroke-width="2" stroke-linecap="round" stroke-linejoin="round"/><path d="M34.05 1h54v74h-54V1z" fill="#fff" stroke="#333" stroke-width="2" stroke-linecap="round" stroke-linejoin="round"/><path d="M34.05 28h54v25h-54V28z" fill="#FF7C83" stroke="#333" stroke-width="2" stroke-linecap="round" stroke-linejoin="round"/><path d="M35.8 53l15.03-16 16.72 16H35.8z" fill="#333" fill-opacity=".2" stroke="#333" stroke-width="1.5" stroke-linecap="round" stroke-linejoin="round"/><path d="M80.05 52.5L66.78 40.25l-5.75 6.25 5.52 6h13.5z" fill="#333" fill-opacity=".09" stroke="#333" stroke-width="1.5" stroke-linecap="round" stroke-linejoin="round"/><path d="M78.55 38.5a3 3 0 100-6 3 3 0 000 6z" fill="#333" fill-opacity=".2" stroke="#333" stroke-width="1.5" stroke-linecap="round" stroke-linejoin="round"/><path opacity=".2" d="M61.55 15a4.5 4.5 0 100-9 4.5 4.5 0 000 9zM50.05 19h-9a2 2 0 100 4h9a2 2 0 100-4zM81.05 19h-9a2 2 0 100 4h9a2 2 0 100-4zM66.05 19h-9a2 2 0 100 4h9a2 2 0 100-4zM81.05 57h-40a2 2 0 100 4h40a2 2 0 100-4zM81.05 65h-40a2 2 0 100 4h40a2 2 0 100-4z" fill="#333"/><path opacity=".15" d="M33.05 14h-24a2 2 0 100 4h24a2 2 0 100-4zM114.05 14h-24a2 2 0 100 4h24a2 2 0 100-4zM114.05 22h-24a2 2 0 100 4h24a2 2 0 100-4zM114.05 51h-15a2 2 0 100 4h15a2 2 0 100-4zM114.05 58h-15a2 2 0 100 4h15a2 2 0 100-4zM30.05 22h5v4h-5a2 2 0 110-4zM30.05 29h5v4h-5a2 2 0 110-4zM30.05 36h5v4h-5a2 2 0 110-4zM7.05 22h18v18h-18V22zM30.05 44h5v4h-5a2 2 0 110-4zM30.05 51h5v4h-5a2 2 0 110-4zM30.05 58h5v4h-5a2 2 0 110-4zM7.05 44h18v18h-18V44zM97.05 30h18v18h-18V30zM91.05 51h-2a2 2 0 100 4h2a2 2 0 100-4zM91.05 58h-2a2 2 0 100 4h2a2 2 0 100-4zM87.05 30h5.68v18h-5.68V30z" fill="#333"/></svg>